<?xml version="1.0" standalone="no"?>
<!DOCTYPE svg PUBLIC "-//W3C//DTD SVG 20010904//EN"
 "http://www.w3.org/TR/2001/REC-SVG-20010904/DTD/svg10.dtd">
<svg version="1.0" xmlns="http://www.w3.org/2000/svg"
 width="492.000000pt" height="534.000000pt" viewBox="0 0 492.000000 534.000000"
 preserveAspectRatio="xMidYMid meet">

<g transform="translate(0.000000,534.000000) scale(0.100000,-0.100000)"
fill="#000000" stroke="none">
<path d="M2855 5154 c-38 -8 -90 -25 -115 -37 -40 -21 -47 -30 -68 -87 -13
-37 -24 -90 -24 -122 -1 -49 4 -65 40 -125 38 -62 42 -77 53 -178 19 -185 -3
-288 -80 -372 l-29 -32 -179 -2 c-252 -3 -303 -3 -1018 6 -659 8 -777 4 -895
-31 -68 -20 -98 -61 -155 -210 -39 -101 -46 -130 -41 -161 4 -21 11 -99 16
-173 7 -106 16 -163 45 -265 20 -71 41 -165 47 -209 27 -200 -17 -579 -111
-976 -106 -442 -161 -914 -132 -1120 22 -149 118 -489 155 -545 18 -27 68 -42
208 -60 62 -8 163 -24 223 -35 259 -46 321 -50 728 -50 399 0 439 3 598 45 19
5 33 0 55 -18 98 -82 266 -169 413 -214 75 -23 105 -27 231 -27 138 -1 148 0
215 28 92 37 132 68 140 107 4 19 35 61 79 108 39 42 97 106 129 143 47 54 65
68 95 73 108 18 286 69 350 101 131 64 151 125 117 349 -22 148 -15 165 145
340 45 50 95 112 111 140 33 58 60 165 61 245 1 68 -15 96 -83 146 -27 20 -49
39 -49 44 0 12 67 69 164 140 200 146 244 181 306 243 161 162 185 311 60 375
-120 62 -259 -10 -555 -288 -128 -120 -240 -208 -251 -197 -2 2 -9 125 -14
273 -18 530 -62 855 -151 1130 -50 156 -55 165 -163 328 -117 176 -123 197
-136 492 l-10 235 25 49 c20 40 25 64 25 127 0 43 7 96 14 118 28 79 -2 124
-99 150 -79 20 -390 20 -490 -1z m364 -84 c111 -10 138 -20 101 -40 -87 -47
-303 -86 -413 -75 -63 7 -70 10 -87 38 -11 17 -17 34 -15 38 7 11 100 31 184
39 109 10 115 10 230 0z m121 -167 c0 -27 -20 -93 -28 -93 -4 0 -70 -7 -147
-15 -175 -18 -322 -19 -355 -2 -24 12 -69 81 -60 91 3 2 30 -2 60 -11 79 -21
283 -11 415 20 55 14 103 25 108 26 4 0 7 -7 7 -16z m-50 -281 c0 -44 3 -147
7 -230 6 -150 6 -151 -15 -145 -15 3 -35 -7 -69 -35 -26 -23 -61 -51 -77 -65
-29 -24 -29 -47 1 -47 17 0 134 84 146 106 13 23 23 16 37 -27 25 -75 15 -94
-80 -159 -74 -50 -85 -64 -65 -80 20 -17 51 -3 107 48 48 44 82 64 92 55 30
-30 -37 -111 -136 -163 -57 -31 -73 -55 -43 -66 18 -7 79 27 159 90 33 26 64
45 69 43 5 -1 16 -15 25 -31 l17 -28 -49 -44 c-27 -25 -81 -63 -120 -86 -85
-50 -106 -67 -106 -85 0 -37 95 9 229 109 35 26 69 48 75 48 7 0 19 -13 29
-29 l17 -29 -47 -42 c-64 -57 -145 -108 -199 -127 -31 -11 -44 -20 -44 -34 0
-14 7 -19 26 -19 31 0 43 6 170 86 55 35 105 64 111 64 12 0 35 -58 28 -70
-14 -23 -222 -151 -283 -174 -55 -21 -72 -32 -72 -47 0 -14 7 -19 26 -19 36 0
176 69 269 134 l80 56 17 -38 c10 -20 18 -44 18 -53 0 -22 -34 -50 -115 -94
-142 -78 -235 -137 -235 -151 0 -31 33 -24 107 24 43 27 118 71 168 97 l89 47
9 -26 c6 -17 4 -35 -5 -53 -21 -44 -222 -171 -327 -205 -68 -23 -85 -36 -70
-54 6 -8 19 -14 28 -14 24 0 165 70 277 136 92 55 124 62 124 28 0 -32 -69
-80 -249 -173 -171 -88 -203 -113 -166 -127 19 -8 89 25 269 125 81 45 149 81
151 81 3 0 5 -16 5 -35 0 -43 -17 -61 -150 -153 -112 -77 -246 -152 -276 -152
-11 0 -28 -6 -37 -12 -24 -18 -6 -41 31 -40 41 1 92 28 268 143 84 55 156 99
162 99 12 0 22 -24 22 -54 0 -29 -31 -50 -232 -157 -155 -83 -198 -112 -198
-136 0 -24 42 -13 114 31 89 54 301 166 315 166 6 0 11 -16 11 -34 0 -32 -8
-41 -84 -100 -96 -76 -252 -160 -313 -170 -49 -9 -63 -32 -29 -47 18 -9 35 -5
87 16 81 34 197 97 272 147 32 22 61 37 64 34 8 -8 22 -180 23 -273 0 -66 -2
-73 -19 -73 -11 0 -23 -5 -27 -11 -12 -20 -138 -95 -233 -138 -52 -24 -125
-67 -162 -95 -37 -28 -81 -59 -98 -69 l-30 -18 -5 33 c-3 18 -10 76 -16 128
-15 120 -77 366 -125 496 -21 54 -73 182 -117 284 -140 322 -189 442 -223 543
l-34 97 59 0 c77 0 113 28 136 108 32 108 -1 300 -70 411 -20 33 -36 67 -36
77 0 10 13 32 30 49 48 50 64 131 58 312 l-6 153 167 3 c91 1 194 4 229 5 l62
2 0 -78z m-593 -566 c18 -26 40 -71 48 -99 17 -57 20 -184 5 -207 -7 -11 -10
-4 -10 28 0 30 -5 44 -16 49 -25 9 -34 -16 -34 -102 0 -87 -11 -118 -32 -97
-9 9 -10 29 0 95 16 114 16 157 -3 157 -23 0 -36 -35 -45 -122 -7 -78 -17 -97
-48 -98 -21 0 -25 27 -16 123 10 106 8 127 -12 127 -23 0 -35 -47 -41 -152
l-6 -96 -30 -6 c-16 -3 -75 -6 -131 -6 l-101 0 3 110 c5 130 -1 160 -28 160
-19 0 -20 -7 -21 -122 -1 -157 -5 -172 -48 -176 l-33 -3 9 58 c4 32 8 94 8
138 0 66 -3 80 -16 83 -24 4 -30 -19 -39 -144 -4 -61 -10 -117 -14 -123 -7
-11 -58 -16 -68 -6 -3 3 3 30 12 59 23 68 34 176 21 196 -9 13 -12 13 -26 -1
-14 -14 -46 -153 -47 -206 0 -18 -6 -23 -25 -23 -22 0 -24 3 -19 28 11 52 21
147 18 170 -2 12 -10 22 -17 22 -17 0 -33 -54 -41 -142 l-7 -68 -40 0 c-36 0
-39 2 -34 23 13 54 18 184 8 210 -12 30 -35 36 -45 11 -3 -9 -6 -68 -6 -131
l0 -116 -41 6 c-22 3 -42 7 -44 9 -2 2 3 28 11 58 19 75 19 216 -1 224 -23 8
-35 -26 -35 -101 0 -37 -6 -91 -12 -120 l-13 -53 -43 0 c-41 0 -44 2 -38 23
31 106 31 177 1 177 -8 0 -17 -10 -20 -22 -11 -47 -26 -134 -27 -155 0 -19 -6
-23 -30 -23 -28 0 -30 2 -24 28 13 57 17 128 8 141 -20 28 -42 4 -43 -46 0
-26 -6 -77 -13 -113 -11 -60 -14 -65 -40 -68 -46 -6 -57 3 -46 34 6 15 13 59
16 98 5 55 2 76 -9 91 -25 32 -39 6 -45 -80 -2 -41 -9 -78 -13 -81 -5 -3 -9
-18 -9 -35 0 -24 -4 -29 -23 -29 l-24 0 5 130 c5 126 4 130 -16 130 -23 0 -30
-28 -34 -147 l-3 -71 -33 -4 c-27 -3 -31 -1 -26 11 10 23 17 147 10 176 -4 14
-13 25 -21 25 -14 0 -19 -21 -30 -152 l-7 -68 -40 0 c-40 0 -40 0 -34 33 13
60 17 162 8 176 -19 27 -42 4 -42 -41 -1 -24 -6 -72 -13 -108 l-12 -64 -43 -9
c-24 -5 -46 -6 -49 -4 -2 3 0 22 6 44 28 99 -1 305 -54 384 -13 20 -21 40 -17
44 4 3 441 5 972 3 l965 -4 32 -48z m-2065 -13 c14 -16 31 -39 38 -53 54 -103
51 -348 -3 -358 -25 -5 -31 38 -17 132 11 69 11 88 0 101 -16 19 -44 19 -75
-1 -30 -20 -70 -138 -89 -264 -11 -71 -14 -80 -21 -56 -15 54 -10 188 8 230
11 25 17 65 17 115 0 126 26 181 85 181 21 0 39 -9 57 -27z m1001 -475 c62 -9
745 -14 870 -6 l49 3 113 -280 c131 -327 166 -408 227 -530 55 -109 101 -248
127 -387 37 -188 71 -388 71 -411 0 -26 -39 -67 -87 -91 -18 -9 -59 -38 -92
-66 -36 -30 -66 -48 -75 -44 -9 3 -49 -22 -103 -64 -84 -66 -353 -257 -551
-392 -95 -64 -113 -83 -94 -102 14 -14 55 11 244 148 85 61 170 119 188 128
l35 17 -36 -33 c-20 -18 -121 -107 -225 -197 -104 -91 -228 -201 -277 -245
l-87 -81 1 -95 c1 -81 -5 -116 -38 -240 l-39 -145 -273 -3 c-254 -2 -273 -1
-267 15 16 41 98 370 111 445 25 138 18 209 -19 195 -11 -4 -16 -19 -16 -47 0
-66 -29 -224 -67 -369 -20 -75 -41 -160 -47 -188 l-10 -53 -49 0 c-43 0 -48 2
-42 18 31 73 88 249 115 355 27 104 31 132 22 152 -16 35 -42 33 -42 -4 0 -69
-98 -388 -133 -429 -6 -8 -16 -24 -22 -35 -6 -12 -19 -23 -29 -25 -16 -3 -18
1 -13 30 3 18 17 71 31 117 32 106 68 299 60 329 -7 25 -39 30 -48 6 -3 -9 -6
-37 -6 -62 0 -65 -78 -380 -100 -405 -4 -5 -28 -6 -53 -2 l-45 7 18 43 c28 65
130 390 130 414 0 14 -6 21 -19 21 -11 0 -22 -4 -25 -9 -3 -4 -28 -84 -56
-177 -28 -93 -63 -194 -78 -224 -32 -63 -35 -64 -174 -39 -68 12 -75 15 -67
31 22 40 100 279 94 288 -11 19 -34 10 -48 -17 -8 -16 -24 -57 -35 -93 -12
-36 -32 -92 -45 -125 -23 -59 -24 -60 -58 -57 -19 2 -37 7 -42 11 -4 4 4 33
18 65 40 90 151 490 191 685 33 162 36 194 41 402 5 190 2 254 -15 405 -12 98
-28 303 -37 454 -21 370 -31 446 -70 570 -19 58 -39 134 -44 170 -13 80 -14
230 -2 230 5 0 22 -7 37 -15 38 -20 81 -19 254 4 80 11 199 22 265 26 66 4
158 11 205 15 93 8 178 5 283 -12z m-1043 -748 c0 -12 -6 -33 -14 -48 -8 -15
-17 -44 -21 -65 -11 -56 -29 -47 -20 10 12 84 55 163 55 103z m4024 -166 c25
-9 20 -73 -10 -132 -34 -68 -110 -136 -340 -305 -104 -76 -201 -148 -217 -160
l-27 -21 -48 23 c-26 12 -58 29 -71 38 l-23 15 43 45 c24 25 96 87 159 138 63
50 158 131 210 180 173 160 255 205 324 179z m-3994 -171 c0 -34 -3 -41 -15
-37 -20 8 -45 -13 -64 -56 -31 -66 -52 -102 -58 -96 -3 3 23 61 58 130 65 128
79 138 79 59z m10 -118 c0 -25 -17 -61 -63 -132 -35 -54 -83 -132 -107 -173
-34 -56 -46 -69 -48 -54 -2 12 6 44 17 73 24 64 183 330 194 324 4 -2 7 -19 7
-38z m3100 -134 c-15 -29 -65 -53 -103 -49 l-32 3 55 31 c31 18 62 40 70 49
13 16 15 16 18 2 2 -9 -2 -25 -8 -36z m-3096 -43 c15 -99 15 -120 -2 -125 -9
-2 -28 -21 -41 -41 -13 -20 -69 -102 -125 -182 -89 -128 -101 -142 -104 -117
-8 64 37 161 153 333 46 68 86 133 90 144 10 30 23 24 29 -12z m3261 -198 c74
-33 219 -125 247 -157 16 -18 17 -26 3 -116 -19 -129 -32 -156 -118 -246 -40
-42 -97 -105 -126 -141 -50 -61 -78 -86 -86 -78 -2 1 -10 44 -19 94 -8 50 -31
155 -49 233 -19 78 -32 140 -28 138 3 -2 20 -9 37 -15 29 -12 31 -18 49 -110
24 -126 30 -142 55 -142 14 0 20 7 20 23 0 20 -19 104 -36 160 -9 30 17 19 68
-29 48 -45 70 -51 76 -23 4 22 -32 64 -87 99 l-49 32 -4 99 c-3 74 -8 103 -20
115 -31 31 -41 7 -33 -83 5 -61 4 -83 -4 -79 -7 5 -11 45 -11 104 -1 55 -6
110 -14 127 l-12 30 -18 -27 c-15 -23 -17 -41 -11 -120 4 -65 3 -88 -4 -77 -6
9 -13 54 -16 100 -3 46 -8 103 -10 126 l-4 42 67 -24 c37 -12 98 -37 137 -55z
m-313 -57 c3 -60 3 -110 2 -112 -1 -1 -7 0 -13 4 -7 3 -11 42 -11 91 0 69 -3
86 -16 91 -11 4 -22 -1 -30 -12 -13 -18 -14 -18 -14 3 0 22 26 40 61 41 14 1
17 -15 21 -106z m-162 89 c0 -11 -537 -541 -581 -574 -42 -31 -58 -78 -27 -78
22 0 171 135 439 398 108 105 199 192 203 192 17 0 3 -49 -20 -71 -15 -13 -88
-94 -164 -179 -76 -85 -154 -171 -174 -189 -20 -19 -36 -42 -36 -50 0 -9 -44
-45 -97 -81 -207 -140 -342 -237 -443 -320 -58 -47 -121 -97 -140 -110 -41
-27 -60 -49 -60 -67 0 -36 82 4 170 84 93 84 208 172 420 318 102 70 222 155
268 188 46 32 86 56 90 53 9 -10 77 -407 98 -571 18 -149 27 -176 51 -152 12
12 11 37 -6 173 -11 87 -38 256 -60 374 -29 161 -37 220 -29 234 11 19 11 19
28 -1 48 -60 104 -317 119 -552 8 -114 12 -136 30 -155 12 -12 21 -26 21 -30
0 -10 -116 -148 -236 -280 -54 -61 -118 -131 -141 -157 -23 -25 -47 -58 -53
-73 -7 -19 -29 -36 -77 -59 -66 -31 -72 -32 -198 -32 -108 0 -143 4 -205 24
-129 40 -339 153 -401 215 -39 40 -146 231 -175 313 -14 41 -16 56 -7 76 7 14
85 87 175 163 90 77 201 176 248 220 47 45 130 114 185 154 55 40 156 128 225
195 99 97 169 154 334 269 115 80 213 146 218 146 4 0 8 -3 8 -8z m-2766 -44
c14 -66 16 -102 10 -148 -5 -41 -10 -50 -23 -45 -19 6 -49 -31 -160 -195 -39
-58 -78 -115 -87 -127 -11 -15 -13 -27 -7 -38 9 -15 13 -13 41 10 18 15 49 54
69 88 65 107 138 206 148 203 6 -1 11 -35 13 -73 3 -63 1 -72 -16 -78 -11 -3
-32 -25 -47 -48 -16 -23 -63 -78 -105 -122 -139 -146 -170 -185 -170 -216 0
-20 5 -29 17 -29 21 0 53 29 53 48 0 9 30 47 68 86 37 39 94 100 126 136 l58
65 -6 -45 c-6 -37 -17 -55 -65 -105 -138 -142 -241 -267 -241 -291 0 -42 25
-27 108 69 96 110 172 185 172 170 0 -37 -14 -73 -29 -73 -9 0 -53 -46 -98
-102 -94 -118 -137 -163 -151 -154 -20 12 -35 179 -29 321 11 238 13 247 125
409 53 78 121 178 152 223 30 45 58 82 62 83 4 0 10 -10 12 -22z m3005 -115
c1 -60 -10 -81 -23 -47 -9 22 -7 169 2 178 10 10 21 -56 21 -131z m-211 -79
c-10 -35 -5 -74 40 -300 29 -142 56 -296 62 -342 12 -103 33 -147 55 -112 11
17 -23 267 -59 443 -38 182 -52 279 -42 295 3 6 34 3 80 -8 87 -21 102 -28 88
-42 -6 -6 3 -57 24 -141 18 -73 41 -179 50 -237 9 -58 23 -113 31 -122 14 -15
7 -28 -66 -130 -97 -136 -158 -205 -171 -192 -4 5 -18 101 -30 214 -11 113
-25 232 -31 265 -15 89 -58 220 -81 244 -19 22 -19 22 6 52 23 27 35 69 20 69
-16 0 -53 -28 -90 -67 -75 -80 -66 -44 12 47 66 78 104 114 111 107 1 -1 -3
-20 -9 -43z m-2908 -718 c-13 -25 -49 -80 -81 -123 -58 -76 -74 -123 -44 -123
20 0 19 -13 -3 -40 -24 -30 -37 -21 -51 34 -17 68 -14 80 19 93 17 6 34 23 42
42 14 32 129 173 136 166 2 -2 -6 -24 -18 -49z m3315 -48 c5 -32 4 -48 -3 -48
-6 0 -13 4 -17 10 -11 17 -39 -2 -118 -79 l-79 -76 82 110 c126 169 123 167
135 83z m5 -104 c0 -40 -5 -51 -35 -79 -34 -33 -163 -91 -184 -84 -7 3 20 30
59 62 38 32 87 78 107 103 21 24 41 44 45 44 4 0 8 -21 8 -46z m-1920 -419 c0
-8 -7 -15 -15 -15 -16 0 -20 12 -8 23 11 12 23 8 23 -8z"/>
<path d="M3166 4579 c-29 -23 -50 -64 -41 -80 10 -15 61 18 83 53 32 50 8 66
-42 27z"/>
<path d="M3209 4440 c-18 -22 -40 -42 -51 -45 -10 -4 -18 -12 -18 -20 0 -17
30 -24 57 -14 24 9 83 84 83 106 0 27 -40 12 -71 -27z"/>
<path d="M3159 4321 c-50 -50 -33 -73 30 -41 35 17 61 45 61 64 0 3 -14 6 -31
6 -20 0 -40 -10 -60 -29z"/>
<path d="M3636 2534 c-85 -67 -243 -157 -316 -180 -56 -17 -100 -48 -87 -60
21 -21 88 0 226 72 208 109 252 143 263 199 6 32 -16 24 -86 -31z"/>
<path d="M3625 2383 c-21 -14 -89 -48 -149 -75 -159 -69 -196 -89 -207 -111
-23 -42 8 -39 112 11 57 27 135 62 173 77 92 38 162 108 120 122 -5 2 -27 -9
-49 -24z"/>
<path d="M2414 3909 c-4 -7 -9 -57 -12 -111 -4 -83 -2 -98 10 -98 26 0 39 51
36 135 -3 75 -16 103 -34 74z"/>
<path d="M2307 3828 c-10 -85 -6 -138 8 -138 31 0 50 98 31 158 -12 37 -34 26
-39 -20z"/>
<path d="M2474 3313 c-69 -112 -140 -198 -306 -369 -141 -144 -169 -184 -130
-184 18 0 342 330 407 415 38 50 105 179 105 202 0 34 -33 6 -76 -64z"/>
<path d="M2217 3292 c-20 -21 -37 -43 -37 -50 0 -34 91 12 115 59 15 29 15 29
-13 29 -19 0 -39 -12 -65 -38z"/>
<path d="M2332 3230 c-34 -38 -75 -77 -91 -86 -36 -21 -56 -53 -42 -67 35 -35
237 158 217 208 -3 8 -9 15 -13 15 -4 0 -36 -31 -71 -70z"/>
<path d="M2507 3153 c-14 -15 -44 -50 -67 -78 -72 -86 -222 -236 -293 -293
-60 -49 -87 -78 -87 -96 0 -3 11 -6 25 -6 41 0 344 283 425 396 51 73 49 137
-3 77z"/>
<path d="M2464 2913 c-49 -59 -125 -136 -169 -171 -107 -86 -136 -134 -72
-118 65 16 367 331 367 383 0 37 -44 4 -126 -94z"/>
<path d="M2520 2758 c-63 -66 -138 -138 -167 -160 -58 -42 -68 -68 -28 -68 52
0 345 287 345 338 0 33 -45 0 -150 -110z"/>
<path d="M2684 2739 c-10 -12 -72 -64 -137 -116 -123 -99 -149 -129 -122 -139
18 -7 47 10 144 90 115 95 161 141 161 165 0 27 -22 27 -46 0z"/>
<path d="M2650 2552 c-30 -32 -70 -68 -87 -81 -39 -26 -43 -51 -10 -51 29 0
86 41 148 106 60 63 68 84 31 84 -19 0 -41 -15 -82 -58z"/>
<path d="M2771 2472 c-5 -10 -34 -34 -64 -55 -59 -41 -88 -84 -62 -93 8 -3 44
16 83 45 66 49 99 92 87 112 -10 15 -34 10 -44 -9z"/>
<path d="M2810 2029 c-30 -28 -120 -100 -200 -162 -337 -259 -367 -287 -306
-287 26 0 41 11 171 121 50 42 164 133 255 204 167 129 186 147 175 165 -13
20 -41 8 -95 -41z"/>
<path d="M2895 1961 c-17 -16 -178 -140 -360 -276 -315 -236 -344 -260 -345
-277 0 -17 50 -7 77 16 42 35 551 416 606 453 47 32 91 89 81 105 -10 15 -29
8 -59 -21z"/>
<path d="M1635 990 c-20 -39 -109 -469 -98 -480 10 -11 39 20 51 56 17 52 69
313 78 392 7 69 -5 82 -31 32z"/>
<path d="M875 888 c-15 -40 -51 -125 -81 -188 -55 -118 -64 -150 -41 -150 23
0 43 31 97 150 71 158 97 260 66 260 -9 0 -25 -29 -41 -72z"/>
<path d="M1485 938 c-2 -7 -14 -67 -25 -133 -12 -66 -32 -162 -46 -213 -25
-96 -24 -112 2 -112 22 0 39 48 69 195 30 144 38 265 18 272 -7 3 -15 -1 -18
-9z"/>
<path d="M1724 879 c-14 -23 -92 -352 -87 -365 6 -16 29 -18 38 -4 13 21 73
279 76 325 3 47 -11 70 -27 44z"/>
<path d="M1831 838 c-46 -122 -84 -339 -62 -352 19 -12 41 14 41 48 0 17 11
76 24 131 30 121 36 186 19 192 -7 3 -17 -6 -22 -19z"/>
<path d="M4446 2539 c-49 -58 -20 -115 45 -88 38 15 76 84 58 105 -21 26 -74
17 -103 -17z"/>
<path d="M3871 1812 c-9 -17 0 -86 12 -99 19 -18 42 50 31 93 -7 28 -29 31
-43 6z"/>
<path d="M3100 1393 c0 -10 16 -128 35 -263 19 -135 38 -301 42 -370 3 -69 10
-135 14 -148 10 -27 35 -29 42 -3 5 19 -8 255 -18 321 -2 19 -16 121 -30 225
-14 105 -32 205 -40 223 -16 34 -45 44 -45 15z"/>
<path d="M3200 1340 c0 -22 12 -100 26 -172 15 -73 34 -200 43 -283 13 -124
19 -150 33 -153 37 -7 33 86 -13 348 -11 63 -24 146 -29 183 -12 101 -60 162
-60 77z"/>
<path d="M3010 1223 c0 -21 11 -139 25 -263 14 -124 25 -256 25 -293 0 -68 11
-107 31 -107 32 0 28 130 -11 435 -11 83 -20 170 -20 196 0 45 -13 69 -37 69
-8 0 -13 -13 -13 -37z"/>
<path d="M2900 1188 c0 -35 7 -135 15 -223 8 -88 15 -210 15 -271 0 -81 4
-115 15 -130 13 -16 16 -17 25 -4 21 28 -7 603 -31 663 -21 50 -39 33 -39 -35z"/>
<path d="M2810 1185 c-10 -12 -12 -58 -7 -208 3 -105 8 -200 12 -209 9 -22 31
-23 39 -2 7 19 6 173 -3 311 -6 106 -18 136 -41 108z"/>
<path d="M2717 923 c-13 -12 -7 -54 9 -60 23 -8 38 12 30 41 -6 25 -25 34 -39
19z"/>
<path d="M3580 1699 c0 -50 80 -451 97 -482 19 -38 38 -29 37 19 -2 69 -85
458 -101 477 -23 25 -33 21 -33 -14z"/>
</g>
</svg>
