<svg id="svg" xmlns="http://www.w3.org/2000/svg" xmlns:xlink="http://www.w3.org/1999/xlink" width="400" height="400" viewBox="0, 0, 400,400" version="1.1"><g id="svgg"><path id="path0" d="M189.600 15.616 C 182.003 16.014,177.781 16.491,168.800 17.969 C 163.993 18.760,158.712 19.858,156.000 20.629 C 154.790 20.974,153.080 21.448,152.200 21.682 C 149.407 22.426,147.827 22.892,146.881 23.251 C 146.376 23.443,145.565 23.600,145.079 23.600 C 144.594 23.600,142.937 24.066,141.398 24.636 C 139.859 25.206,138.150 25.820,137.600 26.001 C 135.359 26.736,129.963 28.778,128.531 29.434 C 122.538 32.176,112.768 37.020,110.328 38.460 C 108.717 39.410,106.698 40.508,105.839 40.901 C 104.013 41.737,91.891 49.709,90.825 50.775 C 90.424 51.176,89.052 52.275,87.774 53.219 C 86.497 54.163,85.170 55.164,84.826 55.445 C 84.482 55.726,83.030 56.817,81.600 57.870 C 77.152 61.146,60.894 77.534,57.152 82.514 C 55.308 84.967,52.651 88.420,51.246 90.187 C 41.938 101.894,30.193 124.411,24.324 141.800 C 24.101 142.460,23.771 143.720,23.590 144.600 C 23.409 145.480,22.871 147.550,22.394 149.200 C 21.214 153.286,20.807 154.757,20.401 156.400 C 19.720 159.163,18.777 163.440,18.373 165.600 C 18.147 166.810,17.805 168.610,17.613 169.600 C 14.612 185.081,14.267 210.202,16.841 225.800 C 17.750 231.312,18.596 235.769,19.420 239.400 C 20.499 244.150,20.738 245.068,22.394 250.800 C 22.871 252.450,23.403 254.520,23.577 255.400 C 23.892 257.000,24.170 257.896,24.816 259.400 C 25.005 259.840,25.422 261.010,25.742 262.000 C 30.233 275.888,43.760 300.800,52.530 311.335 C 53.965 313.059,55.640 315.219,56.251 316.135 C 60.662 322.740,76.792 338.576,85.850 345.193 C 87.803 346.619,90.030 348.353,90.800 349.046 C 92.268 350.367,104.726 358.648,105.913 359.092 C 106.291 359.233,108.965 360.665,111.855 362.274 C 114.745 363.884,117.214 365.200,117.341 365.200 C 117.468 365.200,119.700 366.251,122.302 367.535 C 129.158 370.920,141.442 375.648,145.400 376.426 C 146.280 376.598,147.630 376.921,148.400 377.142 C 150.542 377.758,155.525 379.075,158.200 379.733 C 161.674 380.586,167.365 381.682,172.000 382.390 C 173.650 382.642,175.975 383.017,177.167 383.224 C 182.766 384.196,182.972 383.947,182.645 376.623 C 182.357 370.197,181.746 364.570,180.404 356.000 C 180.215 354.790,179.866 352.495,179.630 350.900 C 179.393 349.305,179.020 346.785,178.799 345.300 C 178.579 343.815,178.218 341.610,177.998 340.400 C 177.388 337.055,176.836 333.342,176.421 329.800 C 176.055 326.672,175.558 323.421,174.830 319.400 C 174.631 318.300,174.258 316.230,174.000 314.800 C 173.479 311.906,173.038 309.586,172.442 306.600 C 172.223 305.500,171.668 302.710,171.210 300.400 C 170.357 296.100,169.911 293.965,169.201 290.800 C 168.979 289.810,168.619 288.100,168.400 287.000 C 168.181 285.900,167.812 284.190,167.579 283.200 C 167.072 281.041,166.529 278.608,166.039 276.300 C 165.705 274.724,164.876 271.347,164.002 268.000 C 162.158 260.937,159.850 251.570,159.714 250.600 C 159.495 249.028,158.450 244.623,157.816 242.600 C 157.541 241.720,157.089 240.190,156.811 239.200 C 156.534 238.210,156.169 236.950,156.000 236.400 C 155.831 235.850,155.471 234.590,155.200 233.600 C 154.929 232.610,154.565 231.350,154.391 230.800 C 149.387 214.984,147.659 209.713,145.998 205.200 C 144.691 201.646,144.074 199.807,143.181 196.800 C 142.690 195.146,140.900 190.716,136.717 180.800 C 135.835 178.710,134.143 174.972,132.957 172.494 C 131.771 170.016,130.800 167.907,130.800 167.808 C 130.800 167.709,129.900 165.798,128.800 163.561 C 127.700 161.324,126.797 159.292,126.794 159.047 C 126.787 158.480,118.869 143.428,114.120 134.953 C 112.133 131.407,110.035 127.537,109.459 126.353 C 108.882 125.169,107.895 123.390,107.265 122.400 C 106.636 121.410,104.528 117.900,102.581 114.600 C 100.634 111.300,98.614 108.025,98.091 107.323 C 96.665 105.408,94.081 101.210,93.214 99.400 C 92.304 97.502,89.935 93.836,83.265 84.008 C 80.551 80.009,78.437 76.630,78.567 76.500 C 78.898 76.169,88.369 80.959,94.581 84.599 C 111.081 94.268,118.683 101.833,138.508 128.319 C 139.118 129.134,140.089 130.700,140.666 131.800 C 141.243 132.900,143.511 136.500,145.706 139.800 C 152.213 149.583,155.764 156.582,164.378 176.600 C 165.230 178.580,166.646 182.090,167.523 184.400 C 171.303 194.345,172.489 197.455,172.834 198.319 C 173.035 198.824,173.200 199.576,173.200 199.989 C 173.200 200.403,173.805 202.509,174.544 204.670 C 177.234 212.538,177.933 214.656,178.810 217.600 C 179.302 219.250,180.197 222.130,180.800 224.000 C 181.403 225.870,182.285 228.750,182.761 230.400 C 184.282 235.675,185.124 238.544,185.812 240.800 C 186.552 243.226,186.748 243.923,188.004 248.600 C 189.141 252.832,189.579 254.632,190.000 256.800 C 190.331 258.503,190.746 260.271,191.618 263.700 C 192.607 267.585,192.788 268.318,193.175 270.000 C 193.402 270.990,193.783 272.520,194.021 273.400 C 195.173 277.662,195.987 281.187,196.239 283.000 C 196.361 283.880,196.605 284.960,196.781 285.400 C 197.065 286.111,197.945 289.753,199.294 295.800 C 200.212 299.916,202.340 300.075,203.764 296.135 C 204.149 295.071,204.885 293.210,205.401 292.000 C 205.916 290.790,206.694 288.810,207.129 287.600 C 207.564 286.390,208.388 284.141,208.960 282.602 C 209.532 281.063,210.000 279.582,210.000 279.312 C 210.000 279.041,210.540 277.641,211.200 276.200 C 211.860 274.759,212.399 273.449,212.399 273.290 C 212.398 273.130,213.314 270.660,214.436 267.800 C 216.896 261.524,216.961 261.364,217.726 259.600 C 218.060 258.830,219.264 255.860,220.400 253.000 C 221.536 250.140,222.703 247.260,222.992 246.600 C 224.962 242.108,226.800 237.491,226.800 237.036 C 226.800 236.303,227.206 235.330,231.913 224.800 C 233.240 221.830,235.270 217.240,236.424 214.600 C 237.577 211.960,238.911 209.170,239.389 208.400 C 239.866 207.630,240.529 206.370,240.862 205.600 C 242.834 201.036,243.570 199.442,245.205 196.200 C 247.379 191.886,254.732 179.086,256.809 176.000 C 257.623 174.790,258.768 172.854,259.352 171.699 C 260.702 169.029,265.227 161.673,267.286 158.800 C 268.906 156.540,273.494 149.448,275.179 146.600 C 275.700 145.720,278.135 141.850,280.592 138.000 C 289.848 123.492,289.574 124.042,287.967 123.183 C 287.079 122.707,283.105 122.858,279.962 123.487 C 276.571 124.165,272.489 126.837,264.602 133.543 C 258.380 138.834,255.708 141.912,248.584 152.000 C 243.456 159.262,242.259 161.105,240.829 163.940 C 240.124 165.338,239.492 166.418,239.424 166.340 C 239.100 165.973,241.057 147.841,242.008 142.400 C 242.375 140.301,242.803 137.793,243.546 133.400 C 246.055 118.551,265.143 96.620,278.200 93.584 C 279.300 93.328,280.830 92.966,281.600 92.778 C 282.370 92.591,284.620 92.061,286.600 91.600 C 288.580 91.139,290.830 90.602,291.600 90.406 C 294.692 89.621,300.914 88.274,304.000 87.722 C 304.550 87.624,306.710 87.193,308.800 86.764 C 310.890 86.335,313.500 85.813,314.600 85.604 C 315.700 85.395,317.500 85.052,318.600 84.842 C 319.700 84.632,321.770 84.252,323.200 83.998 C 326.515 83.407,329.344 82.855,331.506 82.377 C 332.444 82.170,333.755 82.000,334.419 82.000 C 337.203 82.000,339.045 80.630,338.607 78.885 C 338.267 77.531,321.175 60.509,317.635 58.000 C 316.239 57.010,313.725 55.081,312.048 53.712 C 308.600 50.898,296.533 42.679,293.200 40.875 C 291.990 40.220,289.650 38.933,288.000 38.016 C 280.944 34.093,266.690 27.600,261.600 25.989 C 261.050 25.815,259.341 25.206,257.802 24.636 C 256.263 24.066,254.606 23.600,254.121 23.600 C 253.635 23.600,252.824 23.443,252.319 23.251 C 251.065 22.775,246.818 21.579,243.500 20.767 C 242.675 20.565,241.325 20.231,240.500 20.025 C 237.890 19.373,235.481 18.867,232.800 18.408 C 231.370 18.164,229.300 17.797,228.200 17.594 C 218.600 15.824,201.951 14.970,189.600 15.616 M354.960 103.106 C 354.131 103.660,353.507 105.321,353.138 107.960 C 352.004 116.070,351.238 120.472,349.999 126.000 C 349.777 126.990,349.425 128.610,349.218 129.600 C 348.749 131.838,348.176 134.173,347.649 136.000 C 347.427 136.770,347.084 138.030,346.887 138.800 C 346.318 141.024,343.580 148.807,342.595 151.000 C 342.101 152.100,341.332 153.840,340.886 154.867 C 339.785 157.399,337.331 160.646,334.744 162.990 C 332.097 165.389,320.234 173.200,319.237 173.200 C 319.031 173.200,315.885 174.630,312.246 176.378 C 301.243 181.663,291.146 184.226,276.693 185.403 C 272.136 185.774,273.029 184.686,264.892 199.780 C 260.682 207.589,259.330 210.293,252.188 225.200 C 244.796 240.627,242.542 246.152,239.945 255.200 C 239.724 255.970,239.209 257.500,238.802 258.600 C 238.394 259.700,237.310 263.030,236.393 266.000 C 235.476 268.970,234.404 272.390,234.012 273.600 C 233.044 276.582,231.761 280.895,230.978 283.800 C 230.294 286.338,230.151 286.845,228.783 291.600 C 228.308 293.250,227.772 295.230,227.592 296.000 C 227.411 296.770,226.875 298.840,226.401 300.600 C 225.927 302.360,225.375 304.520,225.175 305.400 C 224.975 306.280,224.619 307.720,224.384 308.600 C 224.148 309.480,223.798 311.280,223.606 312.600 C 223.413 313.920,223.081 315.720,222.868 316.600 C 222.655 317.480,222.264 319.190,222.000 320.400 C 221.736 321.610,221.348 323.320,221.139 324.200 C 220.930 325.080,220.573 326.700,220.345 327.800 C 220.116 328.900,219.757 330.610,219.546 331.600 C 219.336 332.590,219.010 334.210,218.822 335.200 C 218.494 336.928,217.934 339.765,217.165 343.600 C 216.673 346.051,215.993 349.786,215.600 352.200 C 215.421 353.300,215.069 355.370,214.817 356.800 C 213.696 363.183,212.303 372.677,211.597 378.747 C 210.940 384.397,211.656 384.700,222.100 383.190 C 232.132 381.740,236.455 380.950,241.200 379.702 C 242.410 379.383,244.030 378.984,244.800 378.814 C 245.570 378.644,247.640 378.103,249.400 377.613 C 251.160 377.123,253.320 376.567,254.200 376.377 C 256.773 375.822,260.194 374.649,268.400 371.509 C 279.183 367.382,303.267 353.869,309.063 348.692 C 309.908 347.937,312.400 346.000,314.600 344.388 C 316.800 342.776,319.230 340.933,320.000 340.292 C 322.935 337.850,339.199 321.376,340.976 319.044 C 342.000 317.700,344.182 314.890,345.824 312.800 C 356.754 298.891,366.996 280.125,374.093 261.000 C 375.461 257.314,375.673 256.590,377.168 250.500 C 377.371 249.675,377.925 247.560,378.400 245.800 C 384.137 224.535,385.819 198.172,382.803 176.800 C 382.264 172.981,381.657 169.269,381.202 167.000 C 380.981 165.900,380.630 164.100,380.423 163.000 C 380.216 161.900,379.856 160.235,379.623 159.300 C 379.390 158.365,379.034 156.925,378.832 156.100 C 378.629 155.275,378.075 153.160,377.601 151.400 C 377.127 149.640,376.580 147.480,376.385 146.600 C 375.925 144.515,375.536 143.307,374.000 139.200 C 373.301 137.330,372.586 135.350,372.411 134.800 C 369.659 126.126,357.424 102.764,355.656 102.806 C 355.515 102.809,355.202 102.944,354.960 103.106 " stroke="none" fill="#247b0c" fill-rule="evenodd"></path></g></svg>